<svg version="1.2" baseProfile="tiny-ps" xmlns="http://www.w3.org/2000/svg" viewBox="0 0 40 50" width="40" height="50">
	<title>Layer 1</title>
	<style>
		tspan { white-space:pre }
		.shp0 { fill: #f63d37 } 
		.shp1 { fill: #ffffff } 
		.shp2 { fill: #2c2e35 } 
	</style>
	<g id="Layer 1">
		<g id="&lt;Group&gt;">
			<path id="&lt;Path&gt;" class="shp0" d="M0.8 0.65L39.3 0.65L39.3 39.24L0.8 39.24L0.8 0.65Z" />
			<path id="&lt;Path&gt;" class="shp1" d="M35.06 8.02L30.75 14.99C30.28 15.77 30.35 16.39 30.57 16.98L37.11 33.71L10.03 33.71C7.6 33.71 5.71 31.76 5.71 29.43L5.69 7.16C5.76 4.28 9.95 4.24 10.03 7.15L10.03 28.03C10.02 28.69 10.6 29.43 11.37 29.42L31.2 29.42L26.07 17.33C25.94 16.87 25.84 16.4 25.84 15.94C25.84 15.43 26.07 14.61 26.4 13.95L31.12 6.18C31.47 5.49 32.17 5.02 33.01 4.98C34.18 4.93 35.19 5.74 35.24 6.99C35.24 7.24 35.18 7.78 35.06 8.02Z" />
			<path id="&lt;Path&gt;" class="shp1" d="M20.12 22.09L20.12 7.15C20.12 4.24 24.37 4.21 24.42 7.15L24.42 22.25C24.42 25.71 21.84 27.99 18.68 27.99C15.52 27.99 12.93 25.65 12.93 22.25L12.93 7.15C12.93 4.24 17.23 4.24 17.23 7.15L17.23 22.09C17.23 24.09 20.12 24.22 20.12 22.09Z" />
			<path id="&lt;Path&gt;" class="shp2" d="M6.58 42.86L6.58 48.98L4.87 48.98L4.87 44.33L3.65 44.33L3.65 46.75C3.65 47.63 3.56 49.06 1.43 49.06C1.17 49.06 0.98 49.05 0.71 48.98L0.71 47.52C0.84 47.55 0.96 47.58 1.09 47.58C1.84 47.58 1.93 47.1 1.93 46.24L1.93 42.86L6.58 42.86Z" />
			<path id="&lt;Path&gt;" class="shp2" d="M9.23 42.86L10.43 45.43L11.41 42.86L13.27 42.86L10.52 48.98L8.68 48.98L9.51 47.3L7.21 42.86L9.23 42.86Z" />
			<path id="&lt;Path&gt;" class="shp2" d="M13.84 42.86L15.56 42.86L15.56 45.43L17.4 42.86L19.41 42.86L17.09 45.83L19.47 48.98L17.33 48.98L15.56 46.35L15.56 48.98L13.84 48.98L13.84 42.86Z" />
			<path id="&lt;Compound Path&gt;" class="shp2" d="M28.8 42.86L28.8 46.54L31.17 42.86L32.85 42.86L32.85 48.98L31.19 48.98L31.19 45.31L28.82 48.98L27.14 48.98L27.14 42.86L28.8 42.86ZM31.83 41.55C31.5 42.27 30.72 42.53 29.99 42.53C29.27 42.53 28.49 42.27 28.16 41.55L29.14 41.19C29.3 41.61 29.68 41.7 29.99 41.7C30.31 41.7 30.69 41.61 30.85 41.19L31.83 41.55Z" />
			<path id="&lt;Path&gt;" class="shp2" d="M39.37 42.86L39.37 48.98L37.66 48.98L37.66 44.33L36.43 44.33L36.43 46.75C36.43 47.63 36.34 49.06 34.21 49.06C33.96 49.06 33.77 49.05 33.49 48.98L33.49 47.52C33.62 47.55 33.75 47.58 33.87 47.58C34.62 47.58 34.72 47.1 34.72 46.24L34.72 42.86L39.37 42.86Z" />
			<path id="&lt;Compound Path&gt;" fill-rule="evenodd" class="shp2" d="M19.54 45.93C19.54 44.25 20.62 42.6 22.92 42.6C25.22 42.6 26.29 44.25 26.29 45.93C26.29 47.6 25.22 49.25 22.92 49.25C20.62 49.25 19.54 47.6 19.54 45.93ZM24.48 45.93C24.48 44.71 23.73 44.11 22.92 44.11C22.1 44.11 21.36 44.71 21.36 45.93C21.36 47.14 22.1 47.74 22.92 47.74C23.73 47.74 24.48 47.14 24.48 45.93Z" />
		</g>
	</g>
</svg>