<svg version="1.1" id="Ebene_1" xmlns="http://www.w3.org/2000/svg" x="0" y="0" viewBox="0 0 260 188.7" xml:space="preserve"><style>.st2{fill:#003869}</style><path fill="#65b32e" d="M18.9 94.8H241v3.3H18.9z"/><path d="M21.4 142c0 17.7 11.3 31.4 30.1 31.4s30.1-13.8 30.1-31.4-11.3-31.4-30.1-31.4-30.1 13.8-30.1 31.4m10.1 0c0-11.8 5.9-22.4 20-22.4s20 10.5 20 22.4c0 11.9-5.9 22.3-20 22.3s-20-10.8-20-22.3" fill-rule="evenodd" clip-rule="evenodd"/><path d="M147.7 172.8h9v-60.6h-13.5l-16.5 45.4-16.6-45.4H96.6v60.6h9.2l-.1-48.4 17.8 48.4h6.4l17.8-48.4zM224.4 112.2L203 158.3l-21.3-46.1h-11.2l28 60.6h8.4l28.6-60.6z"/><path class="st2" d="M212.3 17l-15 26h3.9l15.1-26h24.8l-38.4 65.9L164.4 17zM122.7 17l-15 26h3.9l15-26h18.7l-15 26h3.9l15-26h9.9v65.9H93.9V17zM65.1 17.4C83 23.8 92.3 43.6 85.8 61.5c-6.5 17.9-26.2 27.2-44.1 20.7C23.8 75.8 14.5 56 21 38.1c4.9-13.6 17.8-22.7 32.3-22.8 2.8.1 5.6.4 8.4 1.1L46.3 43h3.9l14.9-25.6z"/></svg>